<svg width="24" height="24" viewBox="0 0 24 24" fill="none" xmlns="http://www.w3.org/2000/svg">
<path d="M14.3205 19.0717C14.3205 19.6817 13.9205 20.4817 13.4105 20.7917L12.0005 21.7017C10.6905 22.5117 8.87055 21.6017 8.87055 19.9817V14.6317C8.87055 13.9217 8.47055 13.0117 8.06055 12.5117L4.22055 8.47172C3.71055 7.96172 3.31055 7.06172 3.31055 6.45172V4.13172C3.31055 2.92172 4.22055 2.01172 5.33055 2.01172H18.6705C19.7805 2.01172 20.6905 2.92172 20.6905 4.03172V6.25172C20.6905 7.06172 20.1805 8.07172 19.6805 8.57172" stroke="black" stroke-width="1.5" stroke-miterlimit="10" stroke-linecap="round" stroke-linejoin="round"/>
<path d="M19.8691 17.1211L18.8691 16.1211M16.0691 16.5211C16.9178 16.5211 17.7318 16.184 18.3319 15.5838C18.932 14.9837 19.2691 14.1698 19.2691 13.3211C19.2691 12.4724 18.932 11.6585 18.3319 11.0584C17.7318 10.4582 16.9178 10.1211 16.0691 10.1211C15.2204 10.1211 14.4065 10.4582 13.8064 11.0584C13.2063 11.6585 12.8691 12.4724 12.8691 13.3211C12.8691 14.1698 13.2063 14.9837 13.8064 15.5838C14.4065 16.184 15.2204 16.5211 16.0691 16.5211Z" stroke="black" stroke-width="1.5" stroke-linecap="round" stroke-linejoin="round"/>
</svg>
