<svg width="20" height="20" viewBox="0 0 20 20" fill="none" xmlns="http://www.w3.org/2000/svg">
<path d="M15.1887 2.14004L15.1187 5.93004C15.1087 6.45004 15.4387 7.14004 15.8587 7.45004L18.3387 9.33004C19.9287 10.53 19.6687 12 17.7687 12.6L14.5387 13.61C13.9987 13.78 13.4287 14.37 13.2887 14.92L12.5187 17.86C11.9087 20.18 10.3887 20.41 9.12871 18.37L7.36871 15.52C7.04871 15 6.28871 14.61 5.68871 14.64L2.34871 14.81C-0.0412922 14.93 -0.721292 13.55 0.838708 11.73L2.81871 9.43004C3.18871 9.00004 3.35871 8.20004 3.18871 7.66004L2.16871 4.42004C1.57871 2.52004 2.63871 1.47004 4.52871 2.09004L7.47871 3.06004C7.97871 3.22004 8.72871 3.11004 9.14871 2.80004L12.2287 0.580044C13.8987 -0.609956 15.2287 0.0900438 15.1887 2.14004Z" fill="#FF2214"/>
</svg>
